<?xml version="1.0" standalone="no"?>
<!DOCTYPE svg PUBLIC "-//W3C//DTD SVG 20010904//EN"
 "http://www.w3.org/TR/2001/REC-SVG-20010904/DTD/svg10.dtd">
<svg version="1.0" xmlns="http://www.w3.org/2000/svg"
 width="16.000000pt" height="16.000000pt" viewBox="0 0 16.000000 16.000000"
 preserveAspectRatio="xMidYMid meet">
<metadata>
Created by potrace 1.11, written by Peter Selinger 2001-2013
</metadata>
<g transform="translate(0.000000,16.000000) scale(0.006250,-0.006250)"
fill="#000000" stroke="none">
<path d="M959 2544 c-20 -6 -75 -37 -122 -68 -47 -31 -163 -105 -259 -166
-312 -198 -315 -201 -357 -322 -18 -54 -19 -88 -19 -700 0 -692 -1 -683 53
-753 35 -46 87 -79 172 -107 56 -19 90 -23 198 -23 182 0 246 26 259 105 3 19
6 262 6 540 1 538 4 585 50 684 34 72 82 111 349 290 135 90 255 174 266 186
23 25 26 100 4 126 -18 22 -61 42 -84 38 -28 -4 -95 -36 -95 -44 0 -4 -8 -10
-17 -13 -10 -3 -77 -46 -150 -94 -541 -360 -619 -405 -719 -411 -54 -4 -63 -2
-77 18 -21 30 -16 103 9 137 19 25 445 303 464 303 5 0 20 -11 34 -25 35 -35
86 -34 128 4 l32 29 1 103 c0 89 -3 108 -20 130 -28 38 -63 48 -106 33z"/>
<path d="M1755 2202 c-19 -4 -95 -53 -325 -210 -307 -210 -362 -255 -406 -335
l-29 -52 0 -691 0 -690 29 -45 c40 -60 69 -84 151 -124 92 -46 217 -62 324
-43 85 15 129 42 389 233 15 11 104 78 197 150 274 209 264 200 273 260 12 80
6 1285 -6 1317 -14 35 -66 62 -103 54 -16 -3 -93 -54 -171 -114 -79 -60 -204
-155 -278 -211 -74 -56 -142 -107 -150 -114 -114 -88 -241 -149 -322 -155
-101 -8 -138 13 -138 78 0 59 15 80 98 141 92 68 286 203 348 243 l45 28 25
-23 c38 -36 107 -34 140 4 22 26 24 36 24 136 0 104 -1 108 -27 133 -30 27
-56 36 -88 30z m411 -808 l0 -96 -100 -79 c-56 -43 -164 -127 -241 -187 -77
-60 -142 -106 -145 -102 -3 5 -5 48 -4 97 l1 88 65 50 c35 28 80 62 99 77 145
114 320 248 323 248 1 0 2 -43 2 -96z"/>
</g>
</svg>
